<mxfile host="app.diagrams.net" agent="Mozilla/5.0 (Windows NT 10.0; Win64; x64) AppleWebKit/537.36 (KHTML, like Gecko) Chrome/128.0.0.0 Safari/537.36 Edg/128.0.0.0" version="24.7.10">
  <diagram name="第 1 页" id="JnWYHwMbW09woVLGBv2Q">
    <mxGraphModel dx="1277" dy="698" grid="1" gridSize="10" guides="1" tooltips="1" connect="1" arrows="1" fold="1" page="1" pageScale="1" pageWidth="827" pageHeight="1169" math="0" shadow="0">
      <root>
        <mxCell id="0" />
        <mxCell id="1" parent="0" />
        <mxCell id="lRYRJw88asEZBX9twJ6J-29" value="" style="rounded=0;whiteSpace=wrap;html=1;fillColor=#dae8fc;strokeColor=#6c8ebf;" vertex="1" parent="1">
          <mxGeometry x="1300" y="360" width="180" height="360" as="geometry" />
        </mxCell>
        <mxCell id="lRYRJw88asEZBX9twJ6J-2" value="" style="rounded=1;whiteSpace=wrap;html=1;" vertex="1" parent="1">
          <mxGeometry x="250" y="443.5" width="470" height="190" as="geometry" />
        </mxCell>
        <mxCell id="lRYRJw88asEZBX9twJ6J-16" style="edgeStyle=orthogonalEdgeStyle;rounded=0;orthogonalLoop=1;jettySize=auto;html=1;exitX=0.5;exitY=1;exitDx=0;exitDy=0;entryX=0.25;entryY=0;entryDx=0;entryDy=0;" edge="1" parent="1" source="lRYRJw88asEZBX9twJ6J-1" target="lRYRJw88asEZBX9twJ6J-4">
          <mxGeometry relative="1" as="geometry" />
        </mxCell>
        <mxCell id="lRYRJw88asEZBX9twJ6J-17" style="edgeStyle=orthogonalEdgeStyle;rounded=0;orthogonalLoop=1;jettySize=auto;html=1;exitX=0.5;exitY=1;exitDx=0;exitDy=0;entryX=0.5;entryY=0;entryDx=0;entryDy=0;" edge="1" parent="1" source="lRYRJw88asEZBX9twJ6J-1" target="lRYRJw88asEZBX9twJ6J-5">
          <mxGeometry relative="1" as="geometry" />
        </mxCell>
        <mxCell id="lRYRJw88asEZBX9twJ6J-18" style="edgeStyle=orthogonalEdgeStyle;rounded=0;orthogonalLoop=1;jettySize=auto;html=1;exitX=0.5;exitY=1;exitDx=0;exitDy=0;entryX=0.5;entryY=0;entryDx=0;entryDy=0;" edge="1" parent="1" source="lRYRJw88asEZBX9twJ6J-1" target="lRYRJw88asEZBX9twJ6J-6">
          <mxGeometry relative="1" as="geometry" />
        </mxCell>
        <mxCell id="lRYRJw88asEZBX9twJ6J-19" style="edgeStyle=orthogonalEdgeStyle;rounded=0;orthogonalLoop=1;jettySize=auto;html=1;exitX=0.5;exitY=1;exitDx=0;exitDy=0;entryX=0.5;entryY=0;entryDx=0;entryDy=0;" edge="1" parent="1" source="lRYRJw88asEZBX9twJ6J-1" target="lRYRJw88asEZBX9twJ6J-7">
          <mxGeometry relative="1" as="geometry" />
        </mxCell>
        <mxCell id="lRYRJw88asEZBX9twJ6J-1" value="情报中心（入口）" style="rounded=0;whiteSpace=wrap;html=1;fillColor=#d5e8d4;strokeColor=#82b366;" vertex="1" parent="1">
          <mxGeometry x="420" y="293.5" width="120" height="50" as="geometry" />
        </mxCell>
        <mxCell id="lRYRJw88asEZBX9twJ6J-15" style="edgeStyle=orthogonalEdgeStyle;rounded=0;orthogonalLoop=1;jettySize=auto;html=1;exitX=1;exitY=0.5;exitDx=0;exitDy=0;entryX=0.5;entryY=1;entryDx=0;entryDy=0;dashed=1;" edge="1" parent="1" source="lRYRJw88asEZBX9twJ6J-3" target="lRYRJw88asEZBX9twJ6J-10">
          <mxGeometry relative="1" as="geometry" />
        </mxCell>
        <mxCell id="lRYRJw88asEZBX9twJ6J-3" value="情报中心（出口）" style="rounded=0;whiteSpace=wrap;html=1;fillColor=#d5e8d4;strokeColor=#82b366;" vertex="1" parent="1">
          <mxGeometry x="420" y="773.5" width="120" height="50" as="geometry" />
        </mxCell>
        <mxCell id="lRYRJw88asEZBX9twJ6J-21" style="edgeStyle=orthogonalEdgeStyle;rounded=0;orthogonalLoop=1;jettySize=auto;html=1;exitX=0.5;exitY=1;exitDx=0;exitDy=0;" edge="1" parent="1" source="lRYRJw88asEZBX9twJ6J-4" target="lRYRJw88asEZBX9twJ6J-3">
          <mxGeometry relative="1" as="geometry">
            <mxPoint x="470" y="753.5" as="targetPoint" />
          </mxGeometry>
        </mxCell>
        <mxCell id="lRYRJw88asEZBX9twJ6J-4" value="技侦中心" style="rounded=0;whiteSpace=wrap;html=1;fillColor=#dae8fc;strokeColor=#6c8ebf;" vertex="1" parent="1">
          <mxGeometry x="330" y="491" width="20" height="95" as="geometry" />
        </mxCell>
        <mxCell id="lRYRJw88asEZBX9twJ6J-22" style="edgeStyle=orthogonalEdgeStyle;rounded=0;orthogonalLoop=1;jettySize=auto;html=1;exitX=0.5;exitY=1;exitDx=0;exitDy=0;entryX=0.5;entryY=0;entryDx=0;entryDy=0;" edge="1" parent="1" source="lRYRJw88asEZBX9twJ6J-5" target="lRYRJw88asEZBX9twJ6J-3">
          <mxGeometry relative="1" as="geometry" />
        </mxCell>
        <mxCell id="lRYRJw88asEZBX9twJ6J-5" value="反诈中心" style="rounded=0;whiteSpace=wrap;html=1;fillColor=#dae8fc;strokeColor=#6c8ebf;" vertex="1" parent="1">
          <mxGeometry x="420" y="491" width="20" height="95" as="geometry" />
        </mxCell>
        <mxCell id="lRYRJw88asEZBX9twJ6J-23" style="edgeStyle=orthogonalEdgeStyle;rounded=0;orthogonalLoop=1;jettySize=auto;html=1;exitX=0.5;exitY=1;exitDx=0;exitDy=0;" edge="1" parent="1" source="lRYRJw88asEZBX9twJ6J-6" target="lRYRJw88asEZBX9twJ6J-3">
          <mxGeometry relative="1" as="geometry" />
        </mxCell>
        <mxCell id="lRYRJw88asEZBX9twJ6J-6" value="视频中心" style="rounded=0;whiteSpace=wrap;html=1;fillColor=#dae8fc;strokeColor=#6c8ebf;" vertex="1" parent="1">
          <mxGeometry x="510" y="491" width="20" height="95" as="geometry" />
        </mxCell>
        <mxCell id="lRYRJw88asEZBX9twJ6J-25" style="edgeStyle=orthogonalEdgeStyle;rounded=0;orthogonalLoop=1;jettySize=auto;html=1;exitX=0.25;exitY=1;exitDx=0;exitDy=0;" edge="1" parent="1" source="lRYRJw88asEZBX9twJ6J-7" target="lRYRJw88asEZBX9twJ6J-3">
          <mxGeometry relative="1" as="geometry" />
        </mxCell>
        <mxCell id="lRYRJw88asEZBX9twJ6J-7" value="网安中心" style="rounded=0;whiteSpace=wrap;html=1;fillColor=#dae8fc;strokeColor=#6c8ebf;" vertex="1" parent="1">
          <mxGeometry x="600" y="491" width="20" height="95" as="geometry" />
        </mxCell>
        <mxCell id="lRYRJw88asEZBX9twJ6J-9" value="各部门协同作战" style="text;html=1;align=center;verticalAlign=middle;whiteSpace=wrap;rounded=0;" vertex="1" parent="1">
          <mxGeometry x="260" y="493.5" width="5" height="90" as="geometry" />
        </mxCell>
        <mxCell id="lRYRJw88asEZBX9twJ6J-12" style="edgeStyle=orthogonalEdgeStyle;rounded=0;orthogonalLoop=1;jettySize=auto;html=1;exitX=0.5;exitY=0;exitDx=0;exitDy=0;entryX=1;entryY=0.5;entryDx=0;entryDy=0;dashed=1;" edge="1" parent="1" source="lRYRJw88asEZBX9twJ6J-10" target="lRYRJw88asEZBX9twJ6J-1">
          <mxGeometry relative="1" as="geometry" />
        </mxCell>
        <mxCell id="lRYRJw88asEZBX9twJ6J-10" value="案件中心" style="rounded=1;whiteSpace=wrap;html=1;" vertex="1" parent="1">
          <mxGeometry x="860" y="508.5" width="120" height="60" as="geometry" />
        </mxCell>
        <mxCell id="lRYRJw88asEZBX9twJ6J-20" value="下发指令" style="text;html=1;align=center;verticalAlign=middle;whiteSpace=wrap;rounded=0;" vertex="1" parent="1">
          <mxGeometry x="424" y="373.5" width="60" height="30" as="geometry" />
        </mxCell>
        <mxCell id="lRYRJw88asEZBX9twJ6J-40" style="edgeStyle=orthogonalEdgeStyle;rounded=0;orthogonalLoop=1;jettySize=auto;html=1;exitX=1;exitY=0.5;exitDx=0;exitDy=0;entryX=0;entryY=0.5;entryDx=0;entryDy=0;" edge="1" parent="1" source="lRYRJw88asEZBX9twJ6J-26" target="lRYRJw88asEZBX9twJ6J-31">
          <mxGeometry relative="1" as="geometry" />
        </mxCell>
        <mxCell id="lRYRJw88asEZBX9twJ6J-41" style="edgeStyle=orthogonalEdgeStyle;rounded=0;orthogonalLoop=1;jettySize=auto;html=1;exitX=1;exitY=0.5;exitDx=0;exitDy=0;entryX=0;entryY=0.5;entryDx=0;entryDy=0;" edge="1" parent="1" source="lRYRJw88asEZBX9twJ6J-26" target="lRYRJw88asEZBX9twJ6J-32">
          <mxGeometry relative="1" as="geometry" />
        </mxCell>
        <mxCell id="lRYRJw88asEZBX9twJ6J-42" style="edgeStyle=orthogonalEdgeStyle;rounded=0;orthogonalLoop=1;jettySize=auto;html=1;exitX=1;exitY=0.5;exitDx=0;exitDy=0;entryX=0;entryY=0.5;entryDx=0;entryDy=0;" edge="1" parent="1" source="lRYRJw88asEZBX9twJ6J-26" target="lRYRJw88asEZBX9twJ6J-33">
          <mxGeometry relative="1" as="geometry" />
        </mxCell>
        <mxCell id="lRYRJw88asEZBX9twJ6J-43" style="edgeStyle=orthogonalEdgeStyle;rounded=0;orthogonalLoop=1;jettySize=auto;html=1;exitX=1;exitY=0.5;exitDx=0;exitDy=0;entryX=0;entryY=0.5;entryDx=0;entryDy=0;" edge="1" parent="1" source="lRYRJw88asEZBX9twJ6J-26" target="lRYRJw88asEZBX9twJ6J-34">
          <mxGeometry relative="1" as="geometry" />
        </mxCell>
        <mxCell id="lRYRJw88asEZBX9twJ6J-44" style="edgeStyle=orthogonalEdgeStyle;rounded=0;orthogonalLoop=1;jettySize=auto;html=1;exitX=1;exitY=0.5;exitDx=0;exitDy=0;entryX=0;entryY=0.5;entryDx=0;entryDy=0;" edge="1" parent="1" source="lRYRJw88asEZBX9twJ6J-26" target="lRYRJw88asEZBX9twJ6J-35">
          <mxGeometry relative="1" as="geometry" />
        </mxCell>
        <mxCell id="lRYRJw88asEZBX9twJ6J-26" value="案件中心" style="rounded=0;whiteSpace=wrap;html=1;fillColor=#0050ef;strokeColor=#001DBC;fontColor=#ffffff;" vertex="1" parent="1">
          <mxGeometry x="1130" y="503.5" width="20" height="110" as="geometry" />
        </mxCell>
        <mxCell id="lRYRJw88asEZBX9twJ6J-38" style="edgeStyle=orthogonalEdgeStyle;rounded=0;orthogonalLoop=1;jettySize=auto;html=1;exitX=1;exitY=0.5;exitDx=0;exitDy=0;" edge="1" parent="1" source="lRYRJw88asEZBX9twJ6J-29">
          <mxGeometry relative="1" as="geometry">
            <mxPoint x="1650" y="540" as="targetPoint" />
          </mxGeometry>
        </mxCell>
        <mxCell id="lRYRJw88asEZBX9twJ6J-30" value="资源共享池" style="rounded=0;whiteSpace=wrap;html=1;fillColor=#ffe6cc;strokeColor=#d79b00;" vertex="1" parent="1">
          <mxGeometry x="1300" y="360" width="180" height="30" as="geometry" />
        </mxCell>
        <mxCell id="lRYRJw88asEZBX9twJ6J-31" value="网安中心：研判结果" style="rounded=0;whiteSpace=wrap;html=1;fillColor=#d5e8d4;strokeColor=#82b366;" vertex="1" parent="1">
          <mxGeometry x="1330" y="422.5" width="120" height="37" as="geometry" />
        </mxCell>
        <mxCell id="lRYRJw88asEZBX9twJ6J-32" value="视频中心：研判结果" style="rounded=0;whiteSpace=wrap;html=1;fillColor=#d5e8d4;strokeColor=#82b366;" vertex="1" parent="1">
          <mxGeometry x="1330" y="480" width="120" height="37" as="geometry" />
        </mxCell>
        <mxCell id="lRYRJw88asEZBX9twJ6J-33" value="技侦中心：研判结果" style="rounded=0;whiteSpace=wrap;html=1;fillColor=#d5e8d4;strokeColor=#82b366;" vertex="1" parent="1">
          <mxGeometry x="1330" y="540" width="120" height="37" as="geometry" />
        </mxCell>
        <mxCell id="lRYRJw88asEZBX9twJ6J-34" value="反诈中心：研判结果" style="rounded=0;whiteSpace=wrap;html=1;fillColor=#d5e8d4;strokeColor=#82b366;" vertex="1" parent="1">
          <mxGeometry x="1330" y="600" width="120" height="37" as="geometry" />
        </mxCell>
        <mxCell id="lRYRJw88asEZBX9twJ6J-35" value="情报中心：研判结果" style="rounded=0;whiteSpace=wrap;html=1;fillColor=#d5e8d4;strokeColor=#82b366;" vertex="1" parent="1">
          <mxGeometry x="1330" y="660" width="120" height="37" as="geometry" />
        </mxCell>
        <mxCell id="lRYRJw88asEZBX9twJ6J-37" value="案件&lt;div&gt;归档中心&lt;/div&gt;" style="rounded=0;whiteSpace=wrap;html=1;fillColor=#0050ef;strokeColor=#001DBC;fontColor=#ffffff;" vertex="1" parent="1">
          <mxGeometry x="1654" y="480" width="20" height="110" as="geometry" />
        </mxCell>
      </root>
    </mxGraphModel>
  </diagram>
</mxfile>
